<?xml version="1.0" standalone="no"?>
<!DOCTYPE svg PUBLIC "-//W3C//DTD SVG 20010904//EN"
 "http://www.w3.org/TR/2001/REC-SVG-20010904/DTD/svg10.dtd">
<svg version="1.0" xmlns="http://www.w3.org/2000/svg"
 width="300.000000pt" height="300.000000pt" viewBox="0 0 300.000000 300.000000"
 preserveAspectRatio="xMidYMid meet">
<metadata>
Created by potrace 1.11, written by Peter Selinger 2001-2013
</metadata>
<g transform="translate(0.000000,300.000000) scale(0.100000,-0.100000)"
fill="#000000" stroke="none">
<path d="M1490 2699 c0 -5 -5 -7 -10 -4 -6 4 -10 3 -9 -2 4 -21 -2 -24 -18
-12 -16 12 -16 12 -6 -1 14 -19 14 -31 1 -48 -9 -10 -14 -10 -27 0 -14 12 -14
11 -2 -4 11 -15 11 -21 1 -33 -7 -8 -9 -15 -6 -15 4 0 0 -7 -8 -16 -9 -8 -16
-22 -16 -30 0 -8 -4 -12 -10 -9 -5 3 -10 -3 -10 -13 0 -11 -7 -22 -15 -26 -8
-3 -14 -9 -13 -13 4 -14 -13 -53 -23 -53 -5 0 -9 -6 -9 -14 0 -7 -10 -21 -22
-30 -13 -9 -16 -14 -8 -10 12 7 13 5 3 -8 -7 -8 -10 -18 -6 -21 3 -4 1 -7 -5
-7 -5 0 -13 6 -16 13 -3 6 -3 0 -1 -15 3 -21 -1 -28 -13 -28 -15 0 -15 -2 -2
-10 13 -9 7 -14 -13 -11 -4 0 -6 -2 -6 -6 3 -20 -3 -34 -23 -54 -13 -12 -17
-19 -10 -15 6 4 3 -9 -9 -28 -12 -20 -25 -36 -30 -36 -4 0 -5 -8 -2 -17 5 -13
2 -15 -11 -10 -10 4 -15 3 -11 -3 7 -12 -22 -70 -35 -70 -5 0 -7 -6 -4 -13 2
-7 -4 -22 -15 -34 -11 -11 -17 -24 -13 -29 4 -4 -1 -4 -11 -1 -10 4 -16 3 -12
-2 7 -13 -43 -111 -57 -111 -6 0 -8 -3 -5 -7 4 -3 -1 -12 -11 -20 -11 -10 -12
-12 -2 -8 10 4 9 2 -2 -8 -10 -8 -15 -17 -11 -20 3 -4 1 -7 -6 -7 -7 0 -9 -4
-6 -10 3 -5 1 -10 -4 -10 -6 0 -10 -3 -9 -7 4 -13 -43 -83 -52 -78 -4 3 -6 -3
-4 -13 3 -9 -4 -27 -16 -40 -12 -12 -18 -27 -15 -32 3 -6 1 -10 -5 -10 -6 0
-15 -12 -20 -26 -6 -14 -14 -23 -18 -20 -4 2 -9 -7 -10 -22 -1 -14 -9 -30 -17
-35 -9 -4 -13 -12 -10 -18 4 -5 -1 -9 -10 -9 -9 0 -13 -5 -10 -10 8 -12 -14
-48 -47 -81 -13 -12 -17 -18 -10 -14 11 6 12 3 3 -14 -7 -11 -16 -21 -22 -21
-6 0 -7 -5 -4 -10 10 -16 -16 -42 -33 -35 -12 4 -13 3 -3 -9 10 -12 9 -19 -8
-37 -11 -12 -18 -26 -15 -31 3 -4 1 -8 -4 -8 -6 0 -15 -13 -21 -30 -5 -16 -15
-30 -20 -30 -6 0 -10 -3 -9 -8 4 -15 -14 -52 -23 -47 -5 4 -9 -3 -9 -14 0 -11
-8 -25 -17 -30 -10 -6 -14 -11 -9 -11 4 0 -2 -9 -15 -20 -13 -10 -20 -19 -15
-20 5 0 2 -8 -5 -17 -12 -15 -12 -16 1 -8 13 8 13 6 1 -8 -7 -9 -18 -14 -25
-10 -8 4 -8 3 1 -7 8 -9 6 -17 -8 -31 -10 -10 -19 -26 -19 -35 0 -8 -4 -12
-10 -9 -9 6 -15 -16 -11 -39 1 -5 -5 -6 -13 -3 -11 4 -13 1 -9 -10 4 -11 2
-14 -5 -9 -8 5 -10 1 -5 -10 5 -12 3 -15 -6 -9 -10 5 -11 2 -6 -14 4 -14 3
-21 -5 -19 -7 2 -14 -5 -15 -14 -3 -19 -44 -88 -51 -88 -3 0 -2 5 2 12 4 6 3
8 -4 4 -6 -3 -9 -15 -7 -26 2 -11 0 -20 -6 -20 -5 0 -9 -7 -9 -15 0 -14 -12
-20 -33 -16 -5 1 -6 -3 -2 -9 3 -6 11 -8 16 -4 6 3 5 -3 -2 -14 -7 -12 -15
-19 -19 -17 -3 1 -12 -4 -20 -13 -13 -14 -12 -15 5 -8 18 6 18 6 2 -12 -9 -10
-17 -24 -17 -30 0 -7 -4 -12 -10 -12 -5 0 -10 -7 -10 -15 0 -21 -38 -57 -52
-49 -7 4 -8 3 -4 -5 4 -6 12 -9 17 -6 5 4 9 1 9 -4 0 -6 -4 -11 -10 -11 -5 0
-10 -5 -10 -12 0 -6 -7 -19 -16 -29 -14 -16 -14 -18 3 -23 10 -3 33 -4 51 -2
23 1 32 -2 32 -13 1 -12 3 -11 12 4 11 19 11 19 19 0 7 -17 8 -18 8 -2 1 18
21 24 21 6 0 -8 6 -7 17 2 15 12 16 12 10 -3 -3 -10 -2 -20 4 -23 5 -4 9 -3 8
2 -3 18 2 33 11 33 6 0 10 -8 10 -17 1 -16 2 -16 12 2 11 19 11 19 19 0 7 -17
8 -18 8 -2 1 18 21 25 21 6 0 -6 5 -7 12 -2 18 11 157 10 150 -1 -3 -5 1 -6 8
-1 19 12 81 15 74 4 -3 -5 7 -4 21 3 21 10 28 9 35 -2 5 -8 6 -19 3 -25 -4 -5
-2 -6 3 -2 5 5 10 13 10 18 3 22 5 23 14 9 6 -10 10 -11 10 -2 0 6 5 12 11 12
6 0 9 -6 6 -13 -3 -8 1 -14 8 -14 8 0 14 3 13 6 -2 19 4 24 12 11 6 -10 10
-11 10 -2 0 6 5 12 10 12 6 0 10 -6 10 -14 0 -8 5 -18 12 -22 7 -4 8 -3 4 4
-4 7 -4 17 0 23 4 8 9 7 15 -2 6 -10 9 -11 9 -1 0 19 20 14 20 -5 0 -15 2 -16
10 -3 10 17 50 23 50 8 0 -6 -8 -7 -17 -3 -14 5 -15 4 -6 -6 10 -10 15 -9 27
1 18 14 107 20 99 6 -4 -5 -1 -6 7 -1 20 12 81 15 74 3 -4 -6 2 -6 14 1 29 16
42 14 42 -6 1 -16 2 -16 12 2 11 19 11 19 19 0 7 -17 8 -18 8 -2 1 18 21 24
21 6 0 -8 6 -7 17 2 15 12 16 12 10 -3 -3 -10 -2 -20 4 -23 5 -4 9 -3 8 2 -3
18 2 33 11 33 6 0 10 -8 10 -17 1 -16 2 -16 12 2 11 19 11 19 19 0 7 -17 8
-18 8 -2 1 18 21 25 21 6 0 -6 5 -7 13 -2 17 11 156 10 149 -1 -3 -5 1 -6 8
-1 19 12 81 15 74 4 -3 -5 7 -4 21 3 21 10 28 9 35 -2 5 -8 6 -19 3 -25 -4 -5
-2 -6 3 -2 5 5 10 13 10 18 3 22 5 23 14 9 6 -10 10 -11 10 -2 0 6 5 12 11 12
6 0 9 -6 6 -13 -3 -8 1 -14 8 -14 8 0 14 3 13 6 -2 19 4 24 12 11 6 -10 10
-11 10 -2 0 6 5 12 10 12 6 0 10 -6 10 -14 0 -8 5 -18 12 -22 7 -4 8 -3 4 4
-4 7 -4 17 0 23 4 8 9 7 15 -2 6 -10 9 -11 9 -1 0 19 20 14 20 -5 0 -15 2 -16
10 -3 10 17 50 23 50 8 0 -6 -8 -7 -17 -3 -14 5 -15 4 -6 -6 10 -10 15 -9 27
1 18 14 107 20 99 6 -4 -5 -1 -6 7 -1 20 12 81 15 74 3 -4 -6 2 -6 14 1 29 16
42 14 42 -6 1 -16 2 -16 12 2 11 19 11 19 19 0 7 -17 8 -18 8 -2 1 18 21 24
21 6 0 -8 6 -7 17 2 15 12 16 12 10 -3 -3 -10 -2 -20 4 -23 5 -4 9 -3 8 2 -3
18 2 33 11 33 6 0 10 -8 10 -17 1 -17 1 -17 11 0 6 9 15 15 20 12 5 -4 6 -11
3 -17 -4 -7 -2 -8 5 -4 6 4 9 12 6 17 -11 17 8 9 34 -13 14 -13 20 -16 14 -8
-19 21 -16 35 4 19 14 -12 16 -12 9 0 -6 9 -5 12 5 9 8 -3 13 -12 11 -19 -2
-11 1 -11 10 1 15 17 79 20 90 5 5 -7 8 -7 8 0 0 16 103 12 118 -5 8 -9 11 -9
7 -2 -6 11 10 13 77 11 45 -1 89 -7 97 -13 11 -8 13 -8 8 0 -4 8 4 12 26 12
123 1 137 4 137 28 0 13 -3 24 -7 24 -11 0 -33 51 -27 62 3 5 0 7 -6 6 -6 -2
-22 17 -35 41 -13 24 -29 49 -35 55 -5 5 -10 18 -10 29 0 10 -4 15 -10 12 -14
-9 -12 9 3 24 10 10 9 11 -4 6 -12 -5 -24 6 -43 41 -14 25 -26 53 -26 62 0 8
-3 12 -7 9 -8 -9 -34 43 -27 54 3 5 0 8 -8 7 -7 -2 -12 3 -10 10 1 6 -3 12 -9
12 -6 0 -9 7 -6 15 4 8 1 17 -5 21 -7 5 -8 2 -4 -7 4 -8 0 -5 -8 6 -9 11 -14
26 -11 34 3 9 3 12 -1 8 -12 -11 -35 30 -28 50 5 15 4 15 -5 3 -10 -14 -13 -8
-10 17 0 3 -6 10 -14 14 -8 5 -27 32 -42 61 -15 29 -33 60 -41 69 -8 9 -11 19
-7 22 3 4 1 7 -6 7 -8 0 -11 6 -7 16 4 10 2 13 -6 8 -8 -5 -9 -2 -5 9 4 10 2
16 -6 14 -7 -1 -11 6 -9 17 2 11 -1 15 -7 11 -6 -3 -11 1 -11 9 0 9 -4 16 -10
16 -5 0 -10 7 -10 15 0 9 -9 25 -20 37 -11 12 -20 30 -20 40 0 12 -4 16 -12
12 -8 -5 -9 -2 -5 10 4 9 3 14 -2 11 -5 -3 -12 -1 -16 5 -3 5 0 10 7 10 7 0 2
7 -10 16 -12 8 -22 22 -22 30 0 8 -5 14 -11 14 -5 0 -7 5 -4 10 3 6 1 10 -5
10 -7 0 -10 5 -8 12 3 7 -6 23 -19 36 -25 25 -30 37 -10 26 11 -7 -20 35 -35
46 -3 3 -8 12 -10 20 -2 8 -11 23 -20 34 -10 11 -18 26 -18 33 0 7 -6 13 -12
13 -9 0 -8 4 2 10 13 8 13 10 -2 10 -23 0 -34 20 -17 31 11 7 10 9 -3 9 -18 0
-42 33 -31 44 3 3 1 6 -6 6 -8 0 -11 6 -7 16 3 8 2 12 -4 9 -11 -7 -45 54 -41
74 1 8 -2 10 -10 5 -9 -5 -10 -2 -6 9 3 9 3 16 -1 16 -19 -3 -23 2 -13 15 9
11 8 14 -6 12 -12 0 -17 5 -15 15 1 9 -5 20 -14 23 -9 4 -14 12 -10 22 3 8 2
12 -4 9 -6 -3 -10 -2 -10 4 0 5 -7 17 -16 25 -11 11 -12 16 -3 16 7 0 5 6 -6
13 -10 8 -16 18 -13 23 3 5 1 18 -3 29 -9 18 -9 18 -5 -2 7 -37 -8 -26 -29 22
-11 25 -24 45 -28 45 -5 0 -4 7 3 15 11 13 10 14 -4 9 -11 -4 -16 -1 -16 10 0
9 -4 16 -10 16 -5 0 -10 7 -10 15 0 8 -5 15 -11 15 -5 0 -7 5 -4 10 3 6 1 10
-4 10 -6 0 -11 9 -11 20 0 11 -4 20 -10 20 -5 0 -10 7 -10 15 0 8 -6 15 -12
15 -9 0 -8 4 2 10 13 8 13 10 -2 10 -18 0 -51 57 -42 71 3 5 -2 9 -11 9 -9 0
-13 5 -10 10 3 6 1 10 -4 10 -6 0 -11 5 -11 11 0 6 -11 25 -25 43 -17 22 -22
36 -15 44 6 7 7 10 4 7 -8 -5 -34 20 -34 35 0 6 -9 20 -20 32 -11 12 -20 30
-20 40 0 11 -4 16 -10 13 -9 -5 -11 -1 -10 20 1 7 -27 35 -34 35 -3 0 -6 -5
-6 -11z m-1010 -1719 c0 -5 -5 -10 -11 -10 -5 0 -7 5 -4 10 3 6 8 10 11 10 2
0 4 -4 4 -10z"/>
<path d="M1620 2516 c0 -2 8 -10 18 -17 15 -13 16 -12 3 4 -13 16 -21 21 -21
13z"/>
<path d="M1057 2019 c7 -7 15 -10 18 -7 3 3 -2 9 -12 12 -14 6 -15 5 -6 -5z"/>
<path d="M979 1873 c-13 -16 -12 -17 4 -4 9 7 17 15 17 17 0 8 -8 3 -21 -13z"/>
<path d="M895 1740 c3 -5 8 -10 11 -10 2 0 4 5 4 10 0 6 -5 10 -11 10 -5 0 -7
-4 -4 -10z"/>
<path d="M796 1593 c-6 -14 -5 -15 5 -6 7 7 10 15 7 18 -3 3 -9 -2 -12 -12z"/>
<path d="M2250 1481 c0 -6 4 -13 10 -16 6 -3 7 1 4 9 -7 18 -14 21 -14 7z"/>
<path d="M2515 1031 c-3 -5 -2 -12 3 -15 5 -3 9 1 9 9 0 17 -3 19 -12 6z"/>
<path d="M375 281 c-3 -5 -2 -12 3 -15 5 -3 9 1 9 9 0 17 -3 19 -12 6z"/>
<path d="M1335 281 c-3 -5 -2 -12 3 -15 5 -3 9 1 9 9 0 17 -3 19 -12 6z"/>
</g>
</svg>
